<svg xmlns="http://www.w3.org/2000/svg" width="24" height="24" style=""><rect id="backgroundrect" width="100%" height="100%" x="0" y="0" fill="none" stroke="none"/><g class="currentLayer" style=""><title>Layer 1</title><path d="M23.121012159347533,9.047625774383546 L15.536012159347534,1.461625774383545 a5.008,5.008 0 0 0 -7.072,0 L0.8790121593475343,9.047625774383546 A2.9779999999999998,2.9779999999999998 0 0 0 0.000012159347534179688,11.168625774383544 v9.817 a3,3 0 0 0 3,3 H21.000012159347534 a3,3 0 0 0 3,-3 V11.168625774383544 A2.9779999999999998,2.9779999999999998 0 0 0 23.121012159347533,9.047625774383546 zM15.000012159347534,21.985625774383546 H9.000012159347534 V18.051625774383545 a3,3 0 0 1 6,0 zm7,-1 a1,1 0 0 1 -1,1 H17.000012159347534 V18.051625774383545 a5,5 0 0 0 -10,0 v3.934 H3.000012159347534 a1,1 0 0 1 -1,-1 V11.168625774383544 a1.008,1.008 0 0 1 0.29300000000000004,-0.7070000000000001 L9.878012159347534,2.878625774383545 a3.008,3.008 0 0 1 4.244,0 l7.585,7.586 A1.008,1.008 0 0 1 22.000012159347534,11.168625774383544 z" id="svg_1" class="selected" opacity="1" fill="#ffffff" fill-opacity="1"/></g></svg>